# xmcd
#
# Track frame offsets:
#	150
#	21789
#	37092
#	56805
#	73683
#	81822
#	95361
#	115101
#	132099
#	152859
#	175986
#	196017
#
# Disc length: 2890 seconds
#
# Revision: 1
# Processed by: cddbd v1.5.1PL2 Copyright (c) Steve Scherf et al.
# Submitted via: audiograbber 1.83.01
#
DISCID=9d0b480c
DTITLE=Johan Piribauer - Norrland
DYEAR=2000
DGENRE=Visor
TTITLE0=Jag kommer aldrig mer tillbaka
TTITLE1=Norrland
TTITLE2=Kniv i ryggen
TTITLE3=Levande stad
TTITLE4=Krigsflygmaskin
TTITLE5=Luthers ögon
TTITLE6=Balsam
TTITLE7=Firman består
TTITLE8=Argaladei
TTITLE9=Den första dagen
TTITLE10=Parentes
TTITLE11=1900-tal
EXTD=
EXTT0=
EXTT1=
EXTT2=
EXTT3=
EXTT4=
EXTT5=
EXTT6=
EXTT7=
EXTT8=
EXTT9=
EXTT10=
EXTT11=
PLAYORDER=
